<?xml version="1.0" encoding="utf-8"?>
<!-- Generator: Adobe Illustrator 16.0.4, SVG Export Plug-In . SVG Version: 6.00 Build 0)  -->
<!DOCTYPE svg PUBLIC "-//W3C//DTD SVG 1.1//EN" "http://www.w3.org/Graphics/SVG/1.1/DTD/svg11.dtd">
<svg version="1.1" id="Layer_1" xmlns="http://www.w3.org/2000/svg" xmlns:xlink="http://www.w3.org/1999/xlink" x="0px" y="0px"
	 width="792px" height="612px" viewBox="0 0 792 612" enable-background="new 0 0 792 612" xml:space="preserve">
<g>
	<g>
		<path fill="none" stroke="#B3B3B3" stroke-miterlimit="10" d="M414.955,102.5c0,0,94.366-24.003,102.177,27.688"/>
		<g>
			<polygon fill="#B3B3B3" points="515.137,128.482 517.07,129.902 518.488,127.968 518.707,129.391 517.288,131.324 
				515.355,129.905 			"/>
		</g>
	</g>
</g>
<g>
	<g>
		<path fill="none" stroke="#B3B3B3" stroke-miterlimit="10" d="M317.428,102.5c0,0-91.902-24.003-99.678,27.688"/>
		<g>
			<polygon fill="#B3B3B3" points="216.392,127.969 217.812,129.902 219.744,128.48 219.526,129.904 217.595,131.324 
				216.175,129.392 			"/>
		</g>
	</g>
</g>
<g>
	<g>
		<path fill="none" stroke="#B3B3B3" stroke-miterlimit="10" d="M209,326.175c0,0,66.353,30.957,137.673-46.78"/>
		<g>
			<polygon fill="#B3B3B3" points="347.005,281.997 346.504,281.991 346.534,279.526 344.073,279.677 344.043,279.177 
				347.041,278.995 			"/>
		</g>
	</g>
</g>
<g>
	<g>
		<path fill="none" stroke="#B3B3B3" stroke-miterlimit="10" d="M215.538,227.434c3.337,0.053,21.457,0.898,33.81,12.854
			C263,253.5,283.5,275.637,345.75,275.068"/>
		<g>
			<polygon fill="#B3B3B3" points="217.107,229.571 217.464,229.22 215.733,227.464 217.611,225.866 217.286,225.485 215,227.432 
							"/>
		</g>
	</g>
</g>
<g>
	<g>
		<path fill="none" stroke="#B3B3B3" stroke-miterlimit="10" d="M517.212,226.947c-3.336,0.13-21.456,1.385-33.81,13.341
			C469.75,253.5,449.25,275.637,387,275.068"/>
		<g>
			<polygon fill="#B3B3B3" points="515.42,225.037 515.104,225.425 517.018,226.98 515.327,228.774 515.691,229.117 517.75,226.931 
							"/>
		</g>
	</g>
</g>
<g>
	<path fill="#4D4D4D" d="M416.438,74.783c-0.098-1.291-1.164-2.312-2.48-2.312h-95c-1.316,0-2.384,1.021-2.481,2.312l-0.019,64.188
		c0,1.381,1.119,2.5,2.5,2.5h95c1.381,0,2.5-1.119,2.5-2.5L416.438,74.783z M412.457,129.471h-92v-53h92V129.471z"/>
	<path fill="#4D4D4D" d="M382.457,153.47c-4-1-5-4-5-8v-0.999h-11h-11v0.999c0,4-1,7-5,8c-0.971,0.242-1,2,0,2h16h16
		C383.457,155.47,383.428,153.712,382.457,153.47z"/>
</g>
<text transform="matrix(1 0 0 1 177.2783 474.6689)" fill="#B3B3B3" font-family="'TradeGothicLTStd-Bold'" font-size="12">Optitrack</text>
<text transform="matrix(1 0 0 1 204.5991 246.6689)" fill="#B3B3B3" font-family="'TradeGothicLTStd-Bold'" font-size="12">Linux</text>
<text transform="matrix(1 0 0 1 264.1226 242.9644)" fill="#B3B3B3" font-family="'TradeGothicLTStd-Bold'" font-size="12">SpaceNav</text>
<text transform="matrix(1 0 0 1 320.4351 270.4644)" fill="#B3B3B3" font-family="'TradeGothicLTStd-Bold'" font-size="7">Tiny Hub</text>
<text transform="matrix(1 0 0 1 235.1987 92.4644)" fill="#B3B3B3" font-family="'TradeGothicLTStd-Bold'" font-size="9">DisplayPort</text>
<text transform="matrix(1 0 0 1 263.1211 168.373)" fill="#B3B3B3" font-family="'TradeGothicLTStd-Bold'" font-size="9">VESA</text>
<text transform="matrix(1 0 0 1 459.6992 92.4644)" fill="#B3B3B3" font-family="'TradeGothicLTStd-Bold'" font-size="9">DVI</text>
<text transform="matrix(1 0 0 1 337.7773 299.9722)" fill="#B3B3B3" font-family="'TradeGothicLTStd-Bold'" font-size="12">USB Switch</text>
<text transform="matrix(1 0 0 1 404.5322 299.9722)"><tspan x="0" y="0" fill="#B3B3B3" font-family="'TradeGothicLTStd-Bold'" font-size="7">Windows/Linux </tspan><tspan x="3.3" y="8.4" fill="#B3B3B3" font-family="'TradeGothicLTStd-Bold'" font-size="7">switch button</tspan></text>
<text transform="matrix(1 0 0 1 339.7871 196.9092)" fill="#B3B3B3" font-family="'TradeGothicLTStd-Bold'" font-size="12">IR Emitters</text>
<text transform="matrix(1 0 0 1 415.4814 382.2402)"><tspan x="0" y="0" fill="#B3B3B3" font-family="'TradeGothicLTStd-Bold'" font-size="12">3D glasses</tspan><tspan x="-28" y="12" fill="#B3B3B3" font-family="'TradeGothicLTStd-Bold'" font-size="10">(wireless; charge via USB)</tspan></text>
<text transform="matrix(1 0 0 1 494.7871 246.6689)" fill="#B3B3B3" font-family="'TradeGothicLTStd-Bold'" font-size="12">Windows</text>
<path fill="#4D4D4D" d="M401.775,206.756h-70.634c-0.743,0-1.35,0.607-1.35,1.35v26.59c0,0.742,0.607,1.35,1.35,1.35h70.634
	c0.742,0,1.348-0.607,1.348-1.35v-26.589C403.123,207.365,402.518,206.756,401.775,206.756z M392.351,208.309
	c0-0.297,0.242-0.54,0.54-0.54h3.554c0.296,0,0.539,0.243,0.539,0.54v1.709c0,0.297-0.242,0.54-0.539,0.54h-3.554
	c-0.296,0-0.54-0.242-0.54-0.54V208.309z M339.459,221.379c0-0.297,0.243-0.54,0.54-0.54h3.324c0.297,0,0.54,0.243,0.54,0.54v3.325
	c0,0.296-0.243,0.54-0.54,0.54H340c-0.296,0-0.54-0.243-0.54-0.54V221.379z M338.696,220.348c-0.296,0-0.54-0.242-0.54-0.539v-3.325
	c0-0.297,0.243-0.54,0.54-0.54h3.325c0.297,0,0.54,0.242,0.54,0.54v3.325c0,0.296-0.243,0.539-0.54,0.539H338.696z M343.12,219.809
	v-3.325c0-0.297,0.243-0.54,0.54-0.54h3.324c0.297,0,0.54,0.242,0.54,0.54v3.325c0,0.296-0.243,0.539-0.54,0.539h-3.324
	C343.362,220.348,343.12,220.106,343.12,219.809z M342.067,226.275c0-0.297,0.243-0.54,0.54-0.54h3.324
	c0.297,0,0.54,0.242,0.54,0.54v3.324c0,0.296-0.243,0.54-0.54,0.54h-3.325c-0.297,0-0.54-0.243-0.54-0.54L342.067,226.275
	L342.067,226.275z M344.961,225.245c-0.297,0-0.54-0.243-0.54-0.54v-3.325c0-0.297,0.243-0.54,0.54-0.54h3.325
	c0.297,0,0.54,0.243,0.54,0.54v3.325c0,0.296-0.243,0.54-0.54,0.54H344.961z M348.623,220.348c-0.297,0-0.54-0.242-0.54-0.539
	v-3.325c0-0.297,0.243-0.54,0.54-0.54h3.324c0.296,0,0.54,0.242,0.54,0.54v3.325c0,0.296-0.243,0.539-0.54,0.539H348.623z
	 M349.385,221.379c0-0.297,0.243-0.54,0.54-0.54h3.324c0.296,0,0.54,0.243,0.54,0.54v3.325c0,0.296-0.243,0.54-0.54,0.54h-3.324
	c-0.297,0-0.54-0.243-0.54-0.54V221.379z M353.045,219.809v-3.325c0-0.297,0.243-0.54,0.54-0.54h3.324c0.297,0,0.54,0.242,0.54,0.54
	v3.325c0,0.296-0.243,0.539-0.54,0.539h-3.324C353.288,220.348,353.045,220.106,353.045,219.809z M351.992,226.275
	c0-0.297,0.243-0.54,0.54-0.54h3.324c0.297,0,0.54,0.242,0.54,0.54v3.324c0,0.296-0.243,0.54-0.54,0.54h-3.324
	c-0.297,0-0.54-0.243-0.54-0.54V226.275z M354.887,225.245c-0.297,0-0.54-0.243-0.54-0.54v-3.325c0-0.297,0.243-0.54,0.54-0.54
	h3.325c0.297,0,0.54,0.243,0.54,0.54v3.325c0,0.296-0.243,0.54-0.54,0.54H354.887z M358.007,219.809v-3.325
	c0-0.297,0.243-0.54,0.54-0.54h3.325c0.297,0,0.54,0.242,0.54,0.54v3.325c0,0.296-0.243,0.539-0.54,0.539h-3.325
	C358.25,220.348,358.007,220.106,358.007,219.809z M356.954,226.275c0-0.297,0.243-0.54,0.54-0.54h3.325
	c0.297,0,0.54,0.242,0.54,0.54v3.324c0,0.296-0.243,0.54-0.54,0.54h-3.325c-0.297,0-0.54-0.243-0.54-0.54V226.275z M359.85,225.245
	c-0.297,0-0.54-0.243-0.54-0.54v-3.325c0-0.297,0.243-0.54,0.54-0.54h3.325c0.297,0,0.54,0.243,0.54,0.54v3.325
	c0,0.296-0.243,0.54-0.54,0.54H359.85z M381.722,215.944c0.297,0,0.541,0.243,0.541,0.54v3.325c0,0.297-0.243,0.54-0.541,0.54
	h-3.324c-0.297,0-0.539-0.243-0.539-0.54v-3.325c0-0.297,0.242-0.54,0.539-0.54H381.722L381.722,215.944z M380.429,214.913v-3.324
	c0-0.296,0.243-0.54,0.541-0.54h3.324c0.297,0,0.539,0.243,0.539,0.54v3.324c0,0.298-0.242,0.54-0.539,0.54h-3.324
	C380.672,215.454,380.429,215.21,380.429,214.913z M379.87,214.913c0,0.298-0.242,0.54-0.539,0.54h-3.325
	c-0.297,0-0.54-0.242-0.54-0.54v-3.324c0-0.296,0.242-0.54,0.54-0.54h3.325c0.296,0,0.539,0.243,0.539,0.54V214.913z
	 M376.761,215.944c0.296,0,0.539,0.243,0.539,0.54v3.325c0,0.297-0.242,0.54-0.539,0.54h-3.325c-0.297,0-0.54-0.243-0.54-0.54
	v-3.325c0-0.297,0.243-0.54,0.54-0.54H376.761L376.761,215.944z M374.908,214.913c0,0.298-0.243,0.54-0.54,0.54h-3.324
	c-0.297,0-0.54-0.242-0.54-0.54v-3.324c0-0.296,0.243-0.54,0.54-0.54h3.324c0.297,0,0.54,0.243,0.54,0.54V214.913z M371.798,215.944
	c0.297,0,0.539,0.243,0.539,0.54v3.325c0,0.297-0.242,0.54-0.539,0.54h-3.325c-0.296,0-0.54-0.243-0.54-0.54v-3.325
	c0-0.297,0.243-0.54,0.54-0.54H371.798L371.798,215.944z M369.945,214.913c0,0.298-0.242,0.54-0.54,0.54h-3.324
	c-0.296,0-0.54-0.242-0.54-0.54v-3.324c0-0.296,0.243-0.54,0.54-0.54h3.324c0.297,0,0.54,0.243,0.54,0.54V214.913z M366.834,215.944
	c0.297,0,0.54,0.243,0.54,0.54v3.325c0,0.297-0.243,0.54-0.54,0.54h-3.324c-0.296,0-0.54-0.243-0.54-0.54v-3.325
	c0-0.297,0.243-0.54,0.54-0.54H366.834L366.834,215.944z M361.917,226.275c0-0.297,0.243-0.54,0.54-0.54h3.325
	c0.296,0,0.54,0.242,0.54,0.54v3.324c0,0.296-0.243,0.54-0.54,0.54h-3.325c-0.296,0-0.54-0.243-0.54-0.54V226.275z M364.812,225.245
	c-0.296,0-0.54-0.243-0.54-0.54v-3.325c0-0.297,0.243-0.54,0.54-0.54h3.324c0.298,0,0.541,0.243,0.541,0.54v3.325
	c0,0.296-0.242,0.54-0.541,0.54H364.812z M366.879,226.275c0-0.297,0.243-0.54,0.54-0.54h3.324c0.297,0,0.541,0.242,0.541,0.54
	v3.324c0,0.296-0.243,0.54-0.541,0.54h-3.324c-0.297,0-0.54-0.243-0.54-0.54V226.275z M369.774,225.245
	c-0.296,0-0.539-0.243-0.539-0.54v-3.325c0-0.297,0.242-0.54,0.539-0.54h3.326c0.296,0,0.539,0.243,0.539,0.54v3.325
	c0,0.296-0.242,0.54-0.539,0.54H369.774z M371.843,226.275c0-0.297,0.242-0.54,0.539-0.54h3.325c0.297,0,0.54,0.242,0.54,0.54v3.324
	c0,0.296-0.243,0.54-0.54,0.54h-3.325c-0.296,0-0.539-0.243-0.539-0.54V226.275z M374.737,225.245c-0.296,0-0.539-0.243-0.539-0.54
	v-3.325c0-0.297,0.242-0.54,0.539-0.54h3.325c0.296,0,0.54,0.243,0.54,0.54v3.325c0,0.296-0.243,0.54-0.54,0.54H374.737z
	 M376.806,226.275c0-0.297,0.242-0.54,0.539-0.54h3.325c0.296,0,0.54,0.242,0.54,0.54v3.324c0,0.296-0.243,0.54-0.54,0.54h-3.325
	c-0.297,0-0.539-0.243-0.539-0.54V226.275z M379.7,225.245c-0.297,0-0.54-0.243-0.54-0.54v-3.325c0-0.297,0.243-0.54,0.54-0.54
	h3.324c0.297,0,0.54,0.243,0.54,0.54v3.325c0,0.296-0.242,0.54-0.54,0.54H379.7z M383.36,220.348c-0.297,0-0.54-0.242-0.54-0.539
	v-3.325c0-0.297,0.243-0.54,0.54-0.54h3.324c0.297,0,0.54,0.242,0.54,0.54v3.325c0,0.296-0.243,0.539-0.54,0.539H383.36z
	 M389.796,214.913c0,0.298-0.242,0.54-0.539,0.54h-3.324c-0.298,0-0.541-0.242-0.541-0.54v-3.324c0-0.296,0.243-0.54,0.541-0.54
	h3.324c0.296,0,0.539,0.243,0.539,0.54V214.913z M391.647,215.944c0.297,0,0.54,0.243,0.54,0.54v3.325c0,0.297-0.243,0.54-0.54,0.54
	h-3.324c-0.297,0-0.54-0.243-0.54-0.54v-3.325c0-0.297,0.243-0.54,0.54-0.54H391.647L391.647,215.944z M384.123,221.379
	c0-0.297,0.243-0.54,0.54-0.54h3.326c0.296,0,0.539,0.243,0.539,0.54v3.325c0,0.296-0.242,0.54-0.539,0.54h-3.326
	c-0.297,0-0.54-0.243-0.54-0.54V221.379z M386.729,226.275c0-0.297,0.243-0.54,0.54-0.54h3.329c0.297,0,0.54,0.242,0.54,0.54v3.324
	c0,0.296-0.243,0.54-0.54,0.54h-3.329c-0.296,0-0.54-0.243-0.54-0.54V226.275z M389.627,225.245c-0.296,0-0.54-0.243-0.54-0.54
	v-3.325c0-0.297,0.242-0.54,0.54-0.54h3.325c0.296,0,0.54,0.243,0.54,0.54v3.325c0,0.296-0.243,0.54-0.54,0.54H389.627z
	 M393.286,220.348c-0.297,0-0.54-0.242-0.54-0.539v-3.325c0-0.297,0.243-0.54,0.54-0.54h3.324c0.297,0,0.54,0.242,0.54,0.54v3.325
	c0,0.296-0.243,0.539-0.54,0.539H393.286z M394.759,214.913c0,0.298-0.243,0.54-0.54,0.54h-3.325c-0.297,0-0.539-0.242-0.539-0.54
	v-3.324c0-0.296,0.242-0.54,0.539-0.54h3.325c0.296,0,0.54,0.243,0.54,0.54V214.913z M387.221,208.309c0-0.297,0.243-0.54,0.54-0.54
	h3.556c0.296,0,0.54,0.243,0.54,0.54v1.709c0,0.297-0.243,0.54-0.54,0.54h-3.556c-0.297,0-0.54-0.242-0.54-0.54V208.309z
	 M382.091,208.309c0-0.297,0.243-0.54,0.541-0.54h3.555c0.297,0,0.541,0.243,0.541,0.54v1.709c0,0.297-0.244,0.54-0.541,0.54h-3.555
	c-0.297,0-0.541-0.242-0.541-0.54V208.309z M376.962,208.309c0-0.297,0.244-0.54,0.541-0.54h3.555c0.297,0,0.541,0.243,0.541,0.54
	v1.709c0,0.297-0.244,0.54-0.541,0.54h-3.555c-0.297,0-0.541-0.242-0.541-0.54V208.309z M371.835,208.309
	c0-0.297,0.243-0.54,0.54-0.54h3.556c0.296,0,0.54,0.243,0.54,0.54v1.709c0,0.297-0.243,0.54-0.54,0.54h-3.556
	c-0.296,0-0.54-0.242-0.54-0.54V208.309z M366.706,208.309c0-0.297,0.243-0.54,0.54-0.54h3.556c0.296,0,0.54,0.243,0.54,0.54v1.709
	c0,0.297-0.242,0.54-0.54,0.54h-3.556c-0.297,0-0.54-0.242-0.54-0.54V208.309z M361.576,208.309c0-0.297,0.243-0.54,0.54-0.54h3.556
	c0.297,0,0.54,0.243,0.54,0.54v1.709c0,0.297-0.243,0.54-0.54,0.54h-3.556c-0.296,0-0.54-0.242-0.54-0.54V208.309z M364.443,211.048
	c0.297,0,0.54,0.243,0.54,0.54v3.324c0,0.298-0.243,0.54-0.54,0.54h-3.324c-0.297,0-0.54-0.242-0.54-0.54v-3.324
	c0-0.296,0.243-0.54,0.54-0.54H364.443z M356.446,208.309c0-0.297,0.243-0.54,0.54-0.54h3.555c0.297,0,0.54,0.243,0.54,0.54v1.709
	c0,0.297-0.243,0.54-0.54,0.54h-3.555c-0.297,0-0.54-0.242-0.54-0.54V208.309z M359.481,211.048c0.297,0,0.54,0.243,0.54,0.54v3.324
	c0,0.298-0.243,0.54-0.54,0.54h-3.325c-0.297,0-0.54-0.242-0.54-0.54v-3.324c0-0.296,0.243-0.54,0.54-0.54H359.481z
	 M351.319,208.309c0-0.297,0.243-0.54,0.54-0.54h3.555c0.296,0,0.54,0.243,0.54,0.54v1.709c0,0.297-0.243,0.54-0.54,0.54h-3.555
	c-0.297,0-0.54-0.242-0.54-0.54V208.309z M354.518,211.048c0.296,0,0.54,0.243,0.54,0.54v3.324c0,0.298-0.243,0.54-0.54,0.54h-3.325
	c-0.296,0-0.54-0.242-0.54-0.54v-3.324c0-0.296,0.243-0.54,0.54-0.54H354.518z M346.19,208.309c0-0.297,0.243-0.54,0.54-0.54h3.555
	c0.296,0,0.54,0.243,0.54,0.54v1.709c0,0.297-0.243,0.54-0.54,0.54h-3.555c-0.297,0-0.54-0.242-0.54-0.54V208.309z M346.23,211.048
	h3.325c0.297,0,0.54,0.243,0.54,0.54v3.324c0,0.298-0.243,0.54-0.54,0.54h-3.325c-0.297,0-0.54-0.242-0.54-0.54v-3.324
	C345.691,211.292,345.934,211.048,346.23,211.048z M341.06,208.309c0-0.297,0.243-0.54,0.54-0.54h3.556
	c0.297,0,0.54,0.243,0.54,0.54v1.709c0,0.297-0.243,0.54-0.54,0.54H341.6c-0.296,0-0.54-0.242-0.54-0.54V208.309z M340.729,211.588
	c0-0.296,0.243-0.54,0.54-0.54h3.325c0.297,0,0.54,0.243,0.54,0.54v3.324c0,0.298-0.243,0.54-0.54,0.54h-3.325
	c-0.297,0-0.54-0.242-0.54-0.54V211.588z M335.933,208.309c0-0.297,0.243-0.54,0.54-0.54h3.555c0.297,0,0.54,0.243,0.54,0.54v1.709
	c0,0.297-0.243,0.54-0.54,0.54h-3.555c-0.297,0-0.54-0.242-0.54-0.54V208.309z M335.765,211.588c0-0.296,0.243-0.54,0.54-0.54h3.325
	c0.296,0,0.54,0.243,0.54,0.54v3.324c0,0.298-0.243,0.54-0.54,0.54h-3.325c-0.297,0-0.54-0.242-0.54-0.54V211.588z M330.803,208.309
	c0-0.297,0.243-0.54,0.54-0.54h3.555c0.297,0,0.54,0.243,0.54,0.54v1.709c0,0.297-0.243,0.54-0.54,0.54h-3.555
	c-0.297,0-0.54-0.242-0.54-0.54V208.309z M330.803,211.588c0-0.296,0.243-0.54,0.54-0.54h3.324c0.297,0,0.54,0.243,0.54,0.54v3.324
	c0,0.298-0.243,0.54-0.54,0.54h-3.324c-0.297,0-0.54-0.242-0.54-0.54V211.588z M330.803,216.484c0-0.297,0.243-0.54,0.54-0.54h5.716
	c0.296,0,0.54,0.242,0.54,0.54v3.325c0,0.296-0.243,0.539-0.54,0.539h-5.716c-0.297,0-0.54-0.242-0.54-0.539V216.484z
	 M330.803,221.379c0-0.297,0.243-0.54,0.54-0.54h7.019c0.297,0,0.54,0.243,0.54,0.54v3.325c0,0.296-0.243,0.54-0.54,0.54h-7.019
	c-0.297,0-0.54-0.243-0.54-0.54V221.379z M330.803,226.275c0-0.297,0.243-0.54,0.54-0.54h9.625c0.297,0,0.54,0.242,0.54,0.54v3.324
	c0,0.296-0.243,0.54-0.54,0.54h-9.625c-0.297,0-0.54-0.243-0.54-0.54V226.275z M337.599,234.495c0,0.296-0.243,0.54-0.54,0.54
	h-5.715c-0.297,0-0.54-0.243-0.54-0.54v-3.324c0-0.297,0.243-0.54,0.54-0.54h5.716c0.296,0,0.54,0.243,0.54,0.54L337.599,234.495
	L337.599,234.495z M343.864,234.495c0,0.296-0.243,0.54-0.54,0.54h-4.627c-0.296,0-0.54-0.243-0.54-0.54v-3.324
	c0-0.297,0.243-0.54,0.54-0.54h4.627c0.297,0,0.54,0.243,0.54,0.54V234.495z M351.276,234.495c0,0.296-0.243,0.54-0.54,0.54h-5.774
	c-0.297,0-0.54-0.243-0.54-0.54v-3.324c0-0.297,0.243-0.54,0.54-0.54h5.774c0.297,0,0.54,0.243,0.54,0.54V234.495z M351.434,229.599
	c0,0.296-0.243,0.54-0.54,0.54h-3.325c-0.297,0-0.54-0.243-0.54-0.54v-3.324c0-0.297,0.243-0.54,0.54-0.54h3.325
	c0.296,0,0.54,0.242,0.54,0.54V229.599z M381.239,234.495c0,0.296-0.242,0.54-0.541,0.54h-28.324c-0.297,0-0.54-0.243-0.54-0.54
	v-3.324c0-0.297,0.243-0.54,0.54-0.54h28.325c0.298,0,0.54,0.243,0.54,0.54V234.495L381.239,234.495z M381.768,226.275
	c0-0.297,0.243-0.54,0.54-0.54h3.324c0.297,0,0.54,0.242,0.54,0.54v3.324c0,0.296-0.242,0.54-0.54,0.54h-3.324
	c-0.297,0-0.54-0.243-0.54-0.54V226.275z M388.623,234.495c0,0.296-0.243,0.54-0.54,0.54h-5.746c-0.297,0-0.539-0.243-0.539-0.54
	v-3.324c0-0.297,0.242-0.54,0.539-0.54h5.746c0.297,0,0.54,0.243,0.54,0.54V234.495z M394.796,234.495
	c0,0.296-0.242,0.54-0.539,0.54h-4.536c-0.296,0-0.54-0.243-0.54-0.54v-3.324c0-0.297,0.243-0.54,0.54-0.54h4.536
	c0.296,0,0.539,0.243,0.539,0.54V234.495z M402.111,234.495c0,0.296-0.242,0.54-0.539,0.54h-5.679c-0.295,0-0.539-0.243-0.539-0.54
	v-3.324c0-0.297,0.242-0.54,0.539-0.54h5.679c0.297,0,0.539,0.243,0.539,0.54V234.495z M402.111,229.599
	c0,0.296-0.242,0.54-0.539,0.54h-9.336c-0.297,0-0.54-0.243-0.54-0.54v-3.324c0-0.297,0.242-0.54,0.54-0.54h9.336
	c0.297,0,0.539,0.242,0.539,0.54V229.599z M402.111,224.705c0,0.296-0.242,0.54-0.539,0.54h-6.982c-0.296,0-0.54-0.243-0.54-0.54
	v-3.325c0-0.297,0.243-0.54,0.54-0.54h6.982c0.297,0,0.539,0.243,0.539,0.54V224.705z M402.111,219.809
	c0,0.297-0.242,0.54-0.539,0.54h-3.324c-0.297,0-0.541-0.243-0.541-0.54v-3.325c0-0.297,0.244-0.54,0.541-0.54h3.324
	c0.297,0,0.539,0.242,0.539,0.54V219.809z M402.111,214.913c0,0.298-0.242,0.54-0.539,0.54h-5.716c-0.297,0-0.54-0.242-0.54-0.54
	v-3.324c0-0.296,0.243-0.54,0.54-0.54h5.716c0.297,0,0.539,0.243,0.539,0.54V214.913z M402.111,210.018
	c0,0.297-0.242,0.54-0.539,0.54h-3.557c-0.295,0-0.539-0.242-0.539-0.54v-1.709c0-0.297,0.242-0.54,0.539-0.54h3.557
	c0.297,0,0.539,0.243,0.539,0.54V210.018z"/>
<path fill="#4D4D4D" d="M425.585,234.462c2.731,0,6.836-1.207,6.836-8.325c0-1.575-0.038-3.987-0.278-6.326
	c-0.007-0.062-4.232-0.431-6.642-0.431h0.163c-2.409,0-6.634,0.369-6.641,0.431c-0.24,2.339-0.277,4.751-0.277,6.326
	c0,7.118,4.104,8.325,6.836,8.325"/>
<path fill="#4D4D4D" d="M424.957,218.208c-2.321-0.013-4.124,0.117-5.884,0.351c0.229-1.634,0.575-3.11,1.099-4.057
	c0.953-1.72,3.102-1.768,4.788-1.729L424.957,218.208z"/>
<path fill="#4D4D4D" d="M426.195,218.183c2.321-0.011,4.124,0.117,5.884,0.352c-0.229-1.634-0.574-3.109-1.098-4.057
	c-0.953-1.722-3.103-1.77-4.789-1.729L426.195,218.183z"/>
<path fill="#4D4D4D" d="M418.644,226.137c0,7.118,4.105,8.325,6.837,8.325"/>
<g>
	<ellipse fill="#4D4D4D" cx="426.944" cy="281.675" rx="3.403" ry="1.188"/>
	<path fill="#4D4D4D" d="M431.308,284.351c0,0.994-1.891,1.773-4.303,1.773s-4.302-0.779-4.302-1.773c0-0.29,0.162-0.574,0.47-0.822
		v0.328c-0.152,0.16-0.229,0.326-0.229,0.494c0,0.83,1.859,1.532,4.061,1.532s4.061-0.702,4.061-1.532
		c0-0.248-0.17-0.459-0.355-0.615v-0.301C431.101,283.705,431.308,284.022,431.308,284.351z"/>
	<path fill="#4D4D4D" d="M430.348,282.198c0,0.656-1.523,1.188-3.403,1.188c-1.879,0-3.402-0.531-3.402-1.188v2.054
		c0,0.656,1.523,1.188,3.402,1.188c1.88,0,3.403-0.532,3.403-1.188V282.198z"/>
	<path fill="#4D4D4D" d="M427.085,287.039c-1.698,0-3.33-0.247-4.594-0.697c-1.31-0.466-2.03-1.085-2.03-1.743
		c0-0.62,0.608-1.121,1.808-1.488c0.127-0.039,0.262,0.033,0.301,0.16c0.039,0.128-0.032,0.263-0.16,0.302
		c-0.931,0.286-1.465,0.659-1.465,1.026c0,0.799,2.393,1.957,6.141,1.957c3.75,0,6.143-1.158,6.143-1.957
		c0-0.354-0.506-0.72-1.387-1.002c-0.127-0.04-0.197-0.176-0.156-0.303s0.177-0.197,0.304-0.156
		c1.143,0.364,1.722,0.855,1.722,1.461c0,0.658-0.721,1.277-2.029,1.743C430.417,286.792,428.784,287.039,427.085,287.039z"/>
</g>
<path fill="#4D4D4D" d="M385.285,273.127h-6.512h-24.589h-6.513c-0.34,0-0.632,0.291-0.632,0.631v3.548
	c0,0.243,0.098,0.486,0.292,0.681l3.985,4.082c0.097,0.146,0.291,0.194,0.438,0.194h29.303c0.195,0,0.34-0.048,0.438-0.194
	l4.082-4.082c0.195-0.194,0.292-0.438,0.292-0.681v-3.548C385.917,273.418,385.626,273.127,385.285,273.127z M380.28,276.869
	c0,0.243-0.194,0.486-0.486,0.486h-3.353v-0.777c0-0.097-0.098-0.194-0.195-0.194h-1.409c-0.097,0-0.193,0.097-0.193,0.194v0.777
	h-2.771v-0.777c0-0.097-0.097-0.194-0.194-0.194h-1.409c-0.097,0-0.194,0.097-0.194,0.194v0.777h-2.771v-0.777
	c0-0.097-0.097-0.194-0.194-0.194h-1.409c-0.097,0-0.194,0.097-0.194,0.194v0.777h-2.77v-0.777c0-0.097-0.098-0.194-0.194-0.194
	h-1.409c-0.098,0-0.195,0.097-0.195,0.194v0.777h-2.77v-0.777c0-0.097-0.097-0.194-0.194-0.194h-1.409
	c-0.098,0-0.194,0.097-0.194,0.194v0.777h-3.354c-0.242,0-0.485-0.194-0.485-0.486v-2.527c0-0.243,0.194-0.486,0.485-0.486h26.631
	c0.243,0,0.486,0.194,0.486,0.486v2.527H380.28z"/>
<g>
	<path fill="#4D4D4D" d="M442.164,356.389l-18.7-6.315c0,0-1.379,6.877-1.401,7.377c-0.025,0.521,0.568,0.708,0.933,0.861
		c0.365,0.154,0.806,0.549,0.937,0.979c0.265,0.866,0.991,1.088,0.991,1.088s11.111,3.754,11.789,3.982s1.335-0.152,2.491-2.102
		c0.666-1.123,1.651-1.373,2.359-1.134c0.639,0.216,1.34,1.036,1.188,2.331c-0.262,2.252,0.029,2.953,0.706,3.182
		c0.678,0.229,11.791,3.982,11.791,3.982s0.711,0.263,1.447-0.266c0.364-0.26,0.954-0.309,1.337-0.211
		c0.383,0.1,0.97,0.311,1.265-0.118c0.285-0.411,3.357-6.716,3.357-6.716l-18.7-6.315
		C443.954,356.994,442.164,356.39,442.164,356.389z M438.684,358.61l-1.865,2.391c-0.837,0.963-1.431,1.428-2.48,1.074l-7.003-2.365
		c-1.051-0.355-1.497-1.06-1.323-2.359l0.657-2.873c0.254-1.349,1.193-1.434,2.243-1.079l8.584,2.899
		C438.63,356.681,439.396,357.468,438.684,358.61z M447.658,359.729l8.584,2.898c1.051,0.355,1.746,0.992,1.131,2.219l-1.221,2.684
		c-0.648,1.139-1.431,1.428-2.481,1.074l-7.004-2.366c-1.05-0.354-1.239-1.085-1.321-2.358l-0.033-3.03
		C445.438,359.509,446.524,359.347,447.658,359.729z"/>
	<path fill="#4D4D4D" d="M435.677,345.503c1.239-1.369-0.279,2.326-0.314,2.73c-0.034,0.402,0.398,0.042,0.56-0.158
		c0.24-0.297,1.084-1.752,1.732-4.533c0.902-3.866-1.889-1.744-1.889-1.744l-11.739,7.656l5.811,1.962
		C429.837,351.416,435.427,345.78,435.677,345.503z"/>
	<path fill="#4D4D4D" d="M454.626,354.737c0.216-0.342,1.249-4.199,1.404-2.361c0.031,0.372,1.06,8.244,1.06,8.244l5.811,1.962
		l-4.693-13.207c0,0-0.934-3.379-2.561,0.243c-1.17,2.605-1.38,4.273-1.37,4.656C454.284,354.53,454.409,355.079,454.626,354.737z"
		/>
</g>
<g>
	<path fill="#4D4D4D" d="M280.807,217.275c0,0,5.551-1.849,16.27,0c0,0-2.771,3.296,0,5.668c0,0-5.549,4.499-16.27,0.432
		C280.807,223.375,282.562,221.064,280.807,217.275z"/>
	<path fill="#4D4D4D" d="M279.764,223.652c0,0,8.251,5.916,18.048,0v5.73h-18.048V223.652z"/>
</g>
<g>
	<path fill="#4D4D4D" d="M193.856,131.324v94.108h47.478v-94.108H193.856z M199.541,137.978h36.104v4.562h-36.106v-4.562H199.541z
		 M234.285,144.77v1.948h-5.912v-1.948H234.285z M200.167,219.53h-1.26v-9.764h1.26V219.53z M204.18,219.53h-1.263v-9.764h1.263
		V219.53z M208.188,219.53h-1.256v-9.764h1.256V219.53z M212.206,219.53h-1.263v-9.764h1.263V219.53z M213.56,162.346h20.725v1.949
		H213.56V162.346z M216.216,219.534h-1.263v-9.764h1.263V219.534z M220.227,219.534h-1.258v-9.764h1.258V219.534z M224.237,219.534
		h-1.261v-9.764h1.261V219.534z M228.253,219.534h-1.265v-9.768h1.265V219.534z M228.516,182.34h6.558v6.555h-6.558V182.34z
		 M232.263,219.534h-1.258v-9.764h1.258V219.534z M236.278,219.534h-1.263v-9.764h1.263V219.534z"/>
	<g>
		<g>
			<path fill="#FFFFFF" d="M205.874,187.809c-0.055-0.284-0.164-0.598-0.167-0.913c-0.01-1.047,0.417-1.961,0.951-2.832
				c0.011-0.018,0.039-0.024,0.059-0.038c-0.027,0.135-0.089,0.244-0.146,0.351c-0.393,0.757-0.747,1.527-0.764,2.401
				c-0.01,0.478,0.083,0.931,0.487,1.311c-0.005-0.102-0.015-0.171-0.013-0.244c0.012-0.338-0.002-0.681,0.042-1.015
				c0.114-0.841,0.418-1.616,0.82-2.367c0.261-0.486,0.58-0.838,1.115-0.986c0.08-0.022,0.15-0.079,0.26-0.138
				c-0.154-0.097-0.269-0.164-0.377-0.239c-0.255-0.172-0.322-0.421-0.186-0.701c0.068-0.14,0.126-0.293,0.227-0.405
				c0.374-0.414,0.567-0.884,0.524-1.445c-0.001-0.014,0.002-0.028,0.005-0.042c0.027-0.146-0.009-0.261-0.114-0.382
				c-0.413-0.472-0.378-0.967,0.091-1.372c0.117-0.099,0.112-0.17,0.06-0.302c-0.199-0.5-0.246-1.018-0.06-1.532
				c0.157-0.428,0.604-0.56,0.936-0.275c0.222,0.191,0.385,0.434,0.426,0.737c0.019,0.145,0.026,0.292,0.039,0.436
				c0.281,0,0.553,0,0.84,0c0-0.072,0.008-0.142-0.001-0.211c-0.039-0.307,0.075-0.57,0.234-0.817
				c0.324-0.507,1.073-0.613,1.446-0.186c0.35,0.402,0.547,0.875,0.45,1.425c-0.036,0.198-0.106,0.39-0.164,0.593
				c0.218,0.134,0.375,0.33,0.348,0.601c-0.023,0.236-0.105,0.464-0.153,0.698c-0.019,0.096-0.052,0.208-0.02,0.293
				c0.095,0.264,0.218,0.519,0.333,0.776c0.129,0.29,0.271,0.575,0.394,0.865c0.321,0.752,0.634,1.507,0.949,2.263
				c0.123,0.298,0.261,0.597,0.349,0.908c0.265,0.957,0.322,1.935,0.236,2.921c-0.01,0.117,0.01,0.172,0.128,0.22
				c0.238,0.094,0.36,0.287,0.359,0.548c0,0.106-0.025,0.215-0.008,0.317c0.016,0.101,0.048,0.222,0.117,0.286
				c0.269,0.242,0.694,0.246,1.005,0.057c0.371-0.226,0.596-0.573,0.844-0.967c-0.665-0.531-1.368-0.614-2.143-0.246
				c0.084-0.088,0.172-0.203,0.272-0.218c0.299-0.037,0.377-0.247,0.446-0.481c0.041-0.142,0.089-0.283,0.126-0.426
				c0.28-1.067,0.09-2.036-0.637-2.874c-0.189-0.218-0.429-0.392-0.645-0.584c0.506,0.255,0.919,0.623,1.208,1.109
				c0.617,1.041,0.388,2.101,0.034,3.157c0.832,0.058,1.118,0.159,1.445,0.509c0.116-0.013,0.229-0.018,0.338-0.042
				c0.05-0.011,0.117-0.052,0.132-0.094c0.067-0.193,0.135-0.388,0.171-0.587c0.112-0.595-0.027-1.169-0.193-1.733
				c-0.352-1.19-0.938-2.268-1.657-3.276c-0.451-0.633-0.916-1.261-1.296-1.937c-0.543-0.968-0.828-2.019-0.807-3.145
				c0.009-0.404-0.015-0.819-0.09-1.218c-0.131-0.703-0.367-1.38-0.886-1.894c-0.98-0.967-2.159-1.273-3.492-0.919
				c-0.662,0.175-1.258,0.478-1.634,1.093c-0.304,0.498-0.423,1.056-0.418,1.624c0.009,1.045,0.009,2.098,0.117,3.135
				c0.097,0.917-0.062,1.703-0.688,2.393c-0.25,0.275-0.468,0.584-0.688,0.889c-0.919,1.265-1.512,2.693-2.054,4.146
				c-0.137,0.369-0.192,0.744-0.066,1.143C205.082,187.652,205.499,187.563,205.874,187.809z M213.846,179.755
				c0.204,0.103,0.4,0.223,0.583,0.359c0.069,0.052,0.094,0.164,0.117,0.205c0,0.264-0.179,0.383-0.359,0.283
				c-0.276-0.154-0.421-0.406-0.48-0.708C213.686,179.786,213.75,179.707,213.846,179.755z M212.32,176.126
				c0.327-0.042,0.672,0.241,0.771,0.64C212.895,176.48,212.685,176.212,212.32,176.126z M212.456,174.415
				c0.218,0.003,0.293,0.17,0.358,0.336c0.065,0.167-0.092,0.193-0.18,0.263c-0.021,0.015-0.049,0.025-0.076,0.036
				c-0.292,0.125-0.368,0.075-0.366-0.243C212.195,174.506,212.256,174.413,212.456,174.415z M210.105,176.755
				c-0.216-0.175-0.433-0.35-0.631-0.511C209.706,176.223,210.001,176.447,210.105,176.755z M209.141,193.465
				c0.07,0.341-0.099,0.602-0.4,0.805c-0.099,0.066-0.19,0.149-0.273,0.236c-0.361,0.377-0.802,0.454-1.286,0.335
				c-0.253-0.062-0.504-0.139-0.746-0.237c-0.916-0.367-1.864-0.605-2.828-0.802c-0.331-0.064-0.66-0.156-0.978-0.268
				c-0.453-0.161-0.596-0.423-0.502-0.889c0.135-0.672,0.142-1.345,0.034-2.022c-0.084-0.53,0.047-0.719,0.567-0.855
				c0.198-0.052,0.396-0.112,0.597-0.147c0.37-0.066,0.646-0.262,0.864-0.561c0.191-0.263,0.375-0.535,0.6-0.766
				c0.399-0.41,0.754-0.427,1.128-0.006c0.415,0.47,0.792,0.976,1.143,1.496c0.588,0.872,1.085,1.805,1.765,2.618
				C209.067,192.692,209.18,193.042,209.141,193.465z M220.019,192.114c-0.196,0.159-0.416,0.292-0.636,0.417
				c-0.94,0.538-1.854,1.112-2.641,1.867c-0.383,0.369-0.846,0.49-1.358,0.483c-0.147-0.009-0.296-0.008-0.445-0.028
				c-0.541-0.07-0.859-0.381-0.976-0.912c-0.096-0.439-0.065-0.875,0.029-1.304c0.258-1.169,0.271-2.357,0.283-3.543
				c0.008-0.538,0.136-0.7,0.736-0.68c0.417,0.014,0.472,0.073,0.426,0.477c-0.053,0.502,0.318,0.878,0.886,0.933
				c0.631,0.062,1.032-0.297,1.402-0.725c0.078-0.091,0.132-0.199,0.201-0.299c0.165-0.239,0.492-0.225,0.606,0.044
				c0.068,0.162,0.104,0.359,0.083,0.533c-0.05,0.4,0.114,0.709,0.384,0.962c0.303,0.283,0.622,0.555,0.96,0.796
				C220.346,191.414,220.394,191.81,220.019,192.114z M210.095,181.023c0.541,0.095,1.033-0.026,1.488-0.34
				c0.243-0.168,0.496-0.336,0.77-0.442c0.413-0.16,0.626-0.429,0.657-0.867c0.027-0.36-0.04-0.495-0.385-0.632
				c-0.169-0.068-0.345-0.127-0.553-0.201c0.285-0.098,0.452-0.254,0.477-0.527c0.023-0.26-0.055-0.492-0.228-0.683
				c-0.159-0.174-0.375-0.164-0.574-0.096c-0.223,0.076-0.285,0.285-0.303,0.495c-0.015,0.184-0.003,0.369-0.003,0.555
				c-0.557-0.352-1.14-0.319-1.733-0.091c-0.023-0.212-0.025-0.426-0.078-0.626c-0.063-0.243-0.292-0.386-0.49-0.353
				c-0.19,0.031-0.316,0.221-0.326,0.487c-0.013,0.359,0.153,0.636,0.41,0.881c-0.132,0.114-0.257,0.217-0.378,0.323
				c-0.4,0.349-0.432,0.726-0.057,1.112c0.3,0.309,0.628,0.591,0.957,0.87C209.837,180.964,209.974,181.003,210.095,181.023z
				 M212.079,177.366c0.067,0.046,0.148,0.081,0.196,0.143c0.032,0.039,0.013,0.117,0.02,0.178c-0.022,0.005-0.044,0.01-0.066,0.015
				c-0.066-0.091-0.133-0.182-0.2-0.272C212.046,177.408,212.062,177.386,212.079,177.366z M210.678,178.269
				c0.107,0.016,0.219,0.019,0.32,0.055c0.039,0.015,0.051,0.104,0.075,0.161c-0.021,0.016-0.041,0.033-0.062,0.048
				c-0.12-0.059-0.239-0.116-0.358-0.176C210.661,178.326,210.669,178.298,210.678,178.269z M209.852,178.337
				c0.054-0.029,0.129-0.021,0.194-0.032c0.009,0.021,0.016,0.04,0.024,0.06c-0.051,0.041-0.096,0.096-0.154,0.118
				c-0.051,0.019-0.117,0.001-0.177-0.001C209.775,178.433,209.803,178.365,209.852,178.337z M209.215,177.443
				c0.011-0.015,0.022-0.03,0.033-0.045c0.055,0.022,0.142,0.031,0.159,0.068c0.039,0.09,0.044,0.195,0.064,0.295
				c-0.025,0-0.049,0-0.074-0.001C209.337,177.654,209.276,177.548,209.215,177.443z M208.619,179.618
				c0.021-0.019,0.042-0.039,0.063-0.058c0.065,0.045,0.137,0.086,0.196,0.14c0.653,0.596,1.385,0.613,2.144,0.265
				c0.46-0.214,0.895-0.481,1.344-0.717c0.094-0.05,0.205-0.065,0.308-0.097c0.011,0.023,0.019,0.044,0.028,0.067
				c-0.034,0.04-0.062,0.091-0.105,0.118c-0.629,0.388-1.24,0.824-1.978,0.991c-0.681,0.153-1.305,0.037-1.822-0.469
				C208.725,179.791,208.677,179.697,208.619,179.618z M213.802,191.378c-0.108,0.856-0.21,1.667-0.316,2.506
				c-1.289-0.324-2.628-0.035-3.947-0.038c-0.029-0.367-0.059-0.74-0.088-1.115C211.066,192.928,212.543,192.564,213.802,191.378z
				 M208.184,189.819c0.211,0.174,0.421,0.354,0.62,0.544c0.187,0.179,0.238,0.412,0.208,0.662
				c-0.025,0.213-0.223,0.401-0.432,0.393c-0.062-0.002-0.137-0.083-0.177-0.146c-0.466-0.724-0.924-1.454-1.389-2.178
				c-0.107-0.167-0.229-0.323-0.345-0.482c0.005-0.009,0.011-0.017,0.016-0.025C207.185,188.997,207.687,189.405,208.184,189.819z"
				/>
		</g>
	</g>
</g>
<g>
	<path fill="#4D4D4D" d="M493.379,131.324v94.108h47.478v-94.108H493.379z M499.063,137.978h36.104v4.562H499.06v-4.562H499.063z
		 M533.808,144.77v1.947h-5.912v-1.947H533.808z M499.689,219.53h-1.261v-9.765h1.261V219.53z M503.703,219.53h-1.263v-9.765h1.263
		V219.53z M507.711,219.53h-1.257v-9.765h1.257V219.53z M511.729,219.53h-1.263v-9.765h1.263V219.53z M513.083,162.346h20.725v1.95
		h-20.725V162.346z M515.738,219.533h-1.263v-9.763h1.263V219.533z M519.749,219.533h-1.258v-9.763h1.258V219.533z M523.761,219.533
		h-1.262v-9.763h1.262V219.533z M527.776,219.533h-1.267v-9.768h1.267V219.533z M528.039,182.34h6.557v6.555h-6.557V182.34z
		 M531.786,219.533h-1.26v-9.763h1.26V219.533z M535.802,219.533h-1.264v-9.763h1.264V219.533z"/>
	<g>
		<path fill="#FFFFFF" d="M503.82,175.741c0,0,4.209-2.29,7.81,0.469l-2.015,6.924c0,0-2.256-1.553-3.93-1.386
			c-1.675,0.167-3.88,0.97-3.88,0.97L503.82,175.741L503.82,175.741z"/>
		<path fill="#FFFFFF" d="M501.451,183.938c0,0,2.259-1.051,4.134-0.917s3.373,1.144,3.696,1.375l-2.036,6.996
			c0,0-2.263-1.473-3.87-1.338c-1.607,0.134-3.001,0.379-3.929,0.858L501.451,183.938L501.451,183.938z"/>
		<path fill="#FFFFFF" d="M510.335,185.073c0,0,2.148,1.396,3.556,1.363c1.385-0.033,2.344-0.143,4.224-0.879
			c0.015-0.006,0.053-0.033,0.04-0.025c-0.04,0.025-2.014,6.934-2.014,6.934s-2.217,1.037-4.227,0.937
			c-2.009-0.101-3.216-1.25-3.584-1.396L510.335,185.073L510.335,185.073z"/>
		<path fill="#FFFFFF" d="M512.695,176.94l-2.021,6.884c0,0,1.642,1.607,3.952,1.474s3.566-0.862,3.872-0.965l2.005-6.944
			c0,0-2.662,1.111-4.403,0.91S513.274,177.357,512.695,176.94L512.695,176.94z"/>
	</g>
</g>
<path fill="#4D4D4D" d="M351.252,272.47c0,0.938-0.761,1.699-1.699,1.699l0,0c-0.939,0-1.7-0.761-1.7-1.699v-6.771
	c0-0.938,0.761-1.699,1.7-1.699l0,0c0.938,0,1.699,0.761,1.699,1.699V272.47z"/>
<text transform="matrix(1 0 0 1 265.124 144.4707)" fill="#B3B3B3" font-family="'TradeGothicLTStd-Bold'" font-size="9">USB</text>
<text transform="matrix(1 0 0 1 459.6992 144.4707)" fill="#B3B3B3" font-family="'TradeGothicLTStd-Bold'" font-size="9">USB</text>
<g>
	<g>
		<path fill="none" stroke="#B3B3B3" stroke-miterlimit="10" d="M336.593,172.429c0,0-41.308-28.009-92.122-23.045"/>
		<g>
			<polygon fill="#B3B3B3" points="246.346,147.595 244.769,149.402 246.577,150.978 245.14,151.076 243.333,149.5 244.91,147.693 
							"/>
		</g>
	</g>
</g>
<g>
	<g>
		<path fill="none" stroke="#B3B3B3" stroke-miterlimit="10" d="M399.945,172.429c0,0,41.309-28.009,92.121-23.045"/>
		<g>
			<polygon fill="#B3B3B3" points="489.963,150.978 491.77,149.402 490.193,147.595 491.629,147.693 493.205,149.5 491.398,151.076 
							"/>
		</g>
	</g>
</g>
<g>
	<g>
		<path fill="none" stroke="#B3B3B3" stroke-miterlimit="10" d="M333.593,179.943c0,0-40.323-28.009-91.122-23.045"/>
		<g>
			<polygon fill="#B3B3B3" points="244.345,155.109 242.769,156.917 244.577,158.492 243.141,158.59 241.333,157.015 
				242.909,155.208 			"/>
		</g>
	</g>
</g>
<g>
	<g>
		<path fill="#4D4D4D" d="M199.617,442.375c-1.255,0-2.27-1.018-2.27-2.265V328.943c0-1.256,1.014-2.269,2.27-2.269
			s2.267,1.013,2.267,2.269V440.11C201.884,441.357,200.873,442.375,199.617,442.375z"/>
	</g>
	<g>
		<path fill="#4D4D4D" d="M146.326,452.203c-0.606,0-1.207-0.239-1.653-0.71c-0.859-0.917-0.812-2.353,0.101-3.206l55.582-52.179
			c0.917-0.857,2.352-0.815,3.206,0.101c0.859,0.91,0.812,2.346-0.101,3.206l-55.583,52.179
			C147.44,451.999,146.883,452.203,146.326,452.203z"/>
	</g>
	<g>
		<path fill="#4D4D4D" d="M257.871,455.985c-0.582,0-1.167-0.222-1.608-0.663l-55.961-55.961c-0.885-0.886-0.885-2.32,0-3.206
			c0.889-0.885,2.324-0.885,3.209,0l55.966,55.961c0.885,0.885,0.885,2.316,0,3.206
			C259.032,455.764,258.447,455.985,257.871,455.985z"/>
	</g>
	<g>
		<path fill="#4D4D4D" d="M208.714,422.716c-0.976,0-1.88-0.635-2.168-1.625l-6.81-22.678c-0.358-1.201,0.325-2.469,1.521-2.823
			c1.205-0.363,2.462,0.319,2.829,1.517l6.804,22.688c0.354,1.194-0.328,2.466-1.521,2.823
			C209.147,422.685,208.929,422.716,208.714,422.716z"/>
	</g>
	<g>
		<path fill="#4D4D4D" d="M170.706,428.18c-0.572,0-1.063-0.434-1.126-1.021c-0.06-0.623,0.393-1.177,1.013-1.243l31.202-3.195
			c0.606-0.077,1.179,0.383,1.242,1.011c0.061,0.623-0.391,1.186-1.011,1.243l-31.198,3.195
			C170.785,428.176,170.75,428.18,170.706,428.18z"/>
	</g>
	<g>
		<path fill="#4D4D4D" d="M231.196,428.18c-0.043,0-0.082-0.004-0.129-0.011l-29.283-3.195c-0.62-0.066-1.072-0.627-1.002-1.246
			c0.066-0.625,0.636-1.069,1.252-1.008l29.283,3.195c0.623,0.069,1.076,0.627,1.006,1.255
			C232.256,427.752,231.766,428.18,231.196,428.18z"/>
	</g>
	<rect x="145.348" y="314.169" fill="#4D4D4D" width="104" height="13.506"/>
	<circle fill="#F2F2F2" cx="155.151" cy="321.291" r="4.209"/>
	<circle fill="#F2F2F2" cx="243.042" cy="321.291" r="4.209"/>
	<circle fill="#F2F2F2" cx="199.097" cy="321.291" r="4.209"/>
</g>
<g>
	<g>
		<polygon fill="#4D4D4D" points="347.894,167.873 338.144,167.873 333.633,176.879 345.394,177.379 		"/>
		<polyline fill="none" stroke="#4D4D4D" stroke-width="0.75" stroke-miterlimit="10" points="347.394,168.373 349.894,175.13 
			347.06,183.297 344.894,176.879 334.133,176.879 332.815,184.13 347.227,184.13 		"/>
	</g>
	<g>
		<polygon fill="#4D4D4D" points="398.099,167.873 388.349,167.873 383.838,176.879 395.599,177.379 		"/>
		<polyline fill="none" stroke="#4D4D4D" stroke-width="0.75" stroke-miterlimit="10" points="397.599,168.373 400.099,175.13 
			397.267,183.297 395.099,176.879 384.338,176.879 383.021,184.13 397.433,184.13 		"/>
	</g>
</g>
<g>
	<g>
		<path fill="none" stroke="#B3B3B3" stroke-miterlimit="10" d="M424.96,212.773c0,0-15.46-14.75-14.21,13.364
			S380,268.964,380,268.964v2.163"/>
		<g>
			<polygon fill="#B3B3B3" points="377.955,269.47 378.321,269.129 380,270.935 381.678,269.129 382.044,269.47 380,271.669 			"/>
		</g>
	</g>
</g>
<g>
	<g>
		<line fill="none" stroke="#B3B3B3" stroke-miterlimit="10" x1="366.457" y1="236.045" x2="366.457" y2="269.958"/>
		<g>
			<polygon fill="#B3B3B3" points="364.412,268.301 364.778,267.96 366.456,269.766 368.135,267.96 368.501,268.301 366.456,270.5 
							"/>
		</g>
	</g>
</g>
<g>
	<g>
		<path fill="none" stroke="#B3B3B3" stroke-miterlimit="10" d="M290.323,243.609c1.352,2.206,3.478,4.219,6.753,5.641
			c12.673,5.5,39.517,4.022,39.517,4.022s12.647-2.208,12.954,10.185"/>
		<g>
			<polygon fill="#B3B3B3" points="347.379,261.929 347.724,261.566 349.508,263.267 351.075,261.363 351.461,261.682 349.552,264 
							"/>
		</g>
	</g>
</g>
<line fill="none" stroke="#B3B3B3" stroke-miterlimit="10" x1="288.647" y1="229.382" x2="288.647" y2="233.25"/>
<g>
	<g>
		<path fill="none" stroke="#B3B3B3" stroke-miterlimit="10" d="M418.83,284.599c0,0-19.013-4.234-31.289-4.113"/>
		<g>
			<polygon fill="#B3B3B3" points="389.241,278.496 389.574,278.869 387.733,280.509 389.503,282.226 389.155,282.584 387,280.494 
							"/>
		</g>
	</g>
</g>
</svg>
