<?xml version="1.0" encoding="UTF-8" standalone="no"?>
<!-- Created with Inkscape (http://www.inkscape.org/) -->

<svg
   xmlns:dc="http://purl.org/dc/elements/1.1/"
   xmlns:cc="http://creativecommons.org/ns#"
   xmlns:rdf="http://www.w3.org/1999/02/22-rdf-syntax-ns#"
   xmlns:svg="http://www.w3.org/2000/svg"
   xmlns="http://www.w3.org/2000/svg"
   xmlns:sodipodi="http://sodipodi.sourceforge.net/DTD/sodipodi-0.dtd"
   xmlns:inkscape="http://www.inkscape.org/namespaces/inkscape"
   width="1043.62"
   height="1043.62"
   id="svg2"
   version="1.1"
   inkscape:version="0.48.4 r9939"
   sodipodi:docname="wheel.svg">
  <defs
     id="defs4" />
  <sodipodi:namedview
     id="base"
     pagecolor="#ffffff"
     bordercolor="#666666"
     borderopacity="1.0"
     inkscape:pageopacity="0.0"
     inkscape:pageshadow="2"
     inkscape:zoom="0.35"
     inkscape:cx="354.58781"
     inkscape:cy="801.59617"
     inkscape:document-units="px"
     inkscape:current-layer="layer1"
     showgrid="false"
     inkscape:window-width="1354"
     inkscape:window-height="1073"
     inkscape:window-x="230"
     inkscape:window-y="177"
     inkscape:window-maximized="0" />
  <metadata
     id="metadata7">
    <rdf:RDF>
      <cc:Work
         rdf:about="">
        <dc:format>image/svg+xml</dc:format>
        <dc:type
           rdf:resource="http://purl.org/dc/dcmitype/StillImage" />
        <dc:title />
      </cc:Work>
    </rdf:RDF>
  </metadata>
  <g
     inkscape:label="Layer 1"
     inkscape:groupmode="layer"
     id="layer1"
     transform="translate(0,-1061.1044)">
    <path
       inkscape:connector-curvature="0"
       style="fill:none;stroke:#000000;stroke-width:10;stroke-miterlimit:4;stroke-opacity:1;stroke-dasharray:none"
       d="m 1039.0117,1582.9108 c 0,285.6407 -231.55746,517.1981 -517.19812,517.1981 -285.64058,0 -517.19808,-231.5574 -517.19808,-517.1981 0,-285.6406 231.5575,-517.1981 517.19808,-517.1981 285.64066,0 517.19812,231.5575 517.19812,517.1981 z"
       id="path3006" />
    <path
       inkscape:connector-curvature="0"
       id="path3006-4-8"
       d="m 931.75963,1582.9108 c 0,71.3728 -57.85902,129.2318 -129.23176,129.2318 -71.37273,0 -129.23177,-57.859 -129.23177,-129.2318 0,-71.3727 57.85904,-129.2317 129.23177,-129.2317 71.37274,0 129.23176,57.859 129.23176,129.2317 z"
       style="fill:none;stroke:#000000;stroke-width:10;stroke-miterlimit:4;stroke-opacity:1;stroke-dasharray:none" />
    <path
       inkscape:connector-curvature="0"
       id="path3006-4-7"
       d="m 370.33125,1582.9108 c 0,71.3728 -57.85904,129.2318 -129.23178,129.2318 -71.37273,0 -129.23177,-57.859 -129.23177,-129.2318 0,-71.3727 57.85904,-129.2317 129.23177,-129.2317 71.37274,0 129.23178,57.859 129.23178,129.2317 z"
       style="fill:none;stroke:#000000;stroke-width:10;stroke-miterlimit:4;stroke-opacity:1;stroke-dasharray:none" />
    <path
       inkscape:connector-curvature="0"
       id="path3006-4-8-1"
       d="m 521.81363,1992.8568 c -71.37274,0 -129.23177,-57.859 -129.23177,-129.2317 0,-71.3728 57.85903,-129.2318 129.23177,-129.2318 71.37274,0 129.23178,57.859 129.23178,129.2318 0,71.3727 -57.85904,129.2317 -129.23178,129.2317 z"
       style="fill:none;stroke:#000000;stroke-width:10;stroke-miterlimit:4;stroke-opacity:1;stroke-dasharray:none" />
    <path
       inkscape:connector-curvature="0"
       id="path3006-4-7-3"
       d="m 521.81363,1431.4284 c -71.37274,0 -129.23177,-57.859 -129.23177,-129.2317 0,-71.3728 57.85903,-129.2318 129.23177,-129.2318 71.37274,0 129.23178,57.859 129.23178,129.2318 0,71.3727 -57.85904,129.2317 -129.23178,129.2317 z"
       style="fill:none;stroke:#000000;stroke-width:10;stroke-miterlimit:4;stroke-opacity:1;stroke-dasharray:none" />
  </g>
</svg>
